#!OML:ASF X:\für Bonn\!DataBase\2005_08_12_Daniel\c3d\Daniel.ASF
:FULLY-SPECIFIED
:DEGREES
186
root -0.172149 6.80911 -14.7606 324.278 21.9362 -3.75017
lowerback 82.0224 -6.16652 7.72948
upperback 11.676 1.18491 -1.87763
thorax -6.4599 1.64874 -5.65994
lowerneck 8.59011 -1.61029 -2.47287
upperneck 20.0283 -2.39469 3.46168
head 4.71157 -1.05487 1.4742
rclavicle 3.18055e-014 -1.02573e-013
rhumerus 20.079 20.5591 -95.8334
rradius 17.3591
rwrist 49.7149
rhand -40.5297 21.2674
rfingers 7.12502
rthumb -13.4784 -8.27643
lclavicle 3.18055e-014 -1.02573e-013
lhumerus -17.7923 0.198986 89.8247
lradius 49.6487
lwrist -7.04784
lhand -11.6145 -7.53786
lfingers 7.12502
lthumb 14.4284 21.9406
rfemur 25.4254 -40.0995 -135.81
rtibia 158.393
rfoot -52.9797 -279.989
rtoes 12.2003
lfemur -39.4529 73.8542 60.3683
ltibia 155.953
lfoot -66.5882 -72.6649
ltoes 9.37789
187
root -0.174717 6.80935 -14.7627 324.247 22.038 -3.72216
lowerback 81.9513 -6.21219 7.89923
upperback 11.6565 1.29027 -1.82685
thorax -6.47093 1.6971 -5.70554
lowerneck 8.55126 -1.77608 -2.31929
upperneck 19.9458 -2.60597 3.48009
head 4.69688 -1.14407 1.45041
rclavicle 4.13472e-014 2.38542e-015
rhumerus 20.2315 20.3672 -95.9074
rradius 17.0079
rwrist 50.9247
rhand -39.8508 20.7029
rfingers 7.12502
rthumb -12.8239 -8.88316
lclavicle 4.13472e-014 2.38542e-015
lhumerus -17.5141 0.214453 90.0618
lradius 49.4231
lwrist -7.13451
lhand -11.6886 -7.50975
lfingers 7.12502
lthumb 14.3571 21.9738
rfemur 25.1882 -40.2432 -135.665
rtibia 158.335
rfoot -53.2305 -279.689
rtoes 12.3131
lfemur -40.1813 73.7571 59.4667
ltibia 155.914
lfoot -66.3008 -72.67
ltoes 9.29113
188
root -0.177603 6.80965 -14.7643 324.262 22.14 -3.67427
lowerback 81.8228 -6.24137 8.08781
upperback 11.6617 1.42236 -1.76766
thorax -6.45728 1.7587 -5.75929
lowerneck 8.36658 -1.96368 -2.1695
upperneck 19.9527 -2.84391 3.48106
head 4.73352 -1.24489 1.41997
rclavicle -8.82604e-014 4.53229e-014
rhumerus 20.4113 20.3279 -95.7883
rradius 16.7305
rwrist 51.8784
rhand -39.1962 20.1918
rfingers 7.12502
rthumb -12.1928 -9.43282
lclavicle -8.82604e-014 4.53229e-014
lhumerus -17.2061 0.163599 90.3373
lradius 49.1884
lwrist -7.20815
lhand -11.7859 -7.5763
lfingers 7.12502
lthumb 14.2633 21.9139
rfemur 24.985 -40.4106 -135.572
rtibia 158.298
rfoot -53.6181 -279.44
rtoes 12.3886
lfemur -41.3671 73.6463 58.061
ltibia 155.861
lfoot -65.5356 -72.7234
ltoes 9.34081
189
root -0.180445 6.8083 -14.7665 324.238 22.2453 -3.64429
lowerback 81.7484 -6.32446 8.3318
upperback 11.6511 1.54933 -1.7337
thorax -6.44888 1.82425 -5.86049
lowerneck 8.16988 -2.16034 -2.08656
upperneck 19.9513 -3.11093 3.58302
head 4.77224 -1.35947 1.43136
rclavicle -4.37326e-014 2.94201e-014
rhumerus 20.5772 20.2668 -95.6477
rradius 16.5085
rwrist 52.79
rhand -38.5821 19.667
rfingers 7.12502
rthumb -11.6006 -9.99194
lclavicle -4.37326e-014 2.94201e-014
lhumerus -16.9197 0.036698 90.5858
lradius 48.9885
lwrist -7.31488
lhand -11.834 -7.61981
lfingers 7.12502
lthumb 14.217 21.8736
rfemur 24.7629 -40.5388 -135.453
rtibia 158.252
rfoot -53.5629 -279.119
rtoes 12.5746
lfemur -42.2241 73.5432 57.0327
ltibia 155.825
lfoot -65.1903 -72.7063
ltoes 9.25405
190
root -0.183122 6.80673 -14.7679 324.229 22.3556 -3.59746
lowerback 81.6581 -6.39883 8.57076
upperback 11.6512 1.67666 -1.71176
thorax -6.42988 1.89264 -5.97448
lowerneck 7.97046 -2.37378 -1.91579
upperneck 19.9267 -3.38966 3.62744
head 4.80257 -1.47658 1.40918
rclavicle -4.92986e-014 1.90833e-014
rhumerus 20.7136 20.0269 -95.6051
rradius 16.2614
rwrist 53.828
rhand -37.9596 19.1891
rfingers 7.12502
rthumb -11.0003 -10.5027
lclavicle -4.92986e-014 1.90833e-014
lhumerus -16.6475 -0.151627 90.7988
lradius 48.8321
lwrist -7.34663
lhand -11.8803 -7.69308
lfingers 7.12502
lthumb 14.1724 21.8035
rfemur 24.5284 -40.6963 -135.364
rtibia 158.233
rfoot -53.6702 -278.876
rtoes 12.6792
lfemur -43.0622 73.4459 56.0104
ltibia 155.795
lfoot -64.7622 -72.7037
ltoes 9.17434
191
root -0.184848 6.80374 -14.7698 324.23 22.4735 -3.5497
lowerback 81.5503 -6.47454 8.82012
upperback 11.6501 1.8117 -1.67359
thorax -6.41241 1.96233 -6.07603
lowerneck 7.72421 -2.5844 -1.8154
upperneck 19.9551 -3.67488 3.71605
head 4.85879 -1.59817 1.41141
rclavicle -2.62396e-014 1.59028e-015
rhumerus 20.8377 19.7952 -95.5211
rradius 16.0189
rwrist 54.8244
rhand -37.337 18.7068
rfingers 7.12502
rthumb -10.3998 -11.016
lclavicle -2.62396e-014 1.59028e-015
lhumerus -16.3278 -0.281277 91.0584
lradius 48.5845
lwrist -7.52726
lhand -11.9409 -7.75727
lfingers 7.12502
lthumb 14.1139 21.7434
rfemur 24.2842 -40.8095 -135.309
rtibia 158.225
rfoot -54.0514 -278.632
rtoes 12.7879
lfemur -44.0002 73.3473 54.8952
ltibia 155.771
lfoot -64.1953 -72.778
ltoes 9.25374
192
root -0.186092 6.79939 -14.7712 324.231 22.5731 -3.51359
lowerback 81.41 -6.56646 9.0995
upperback 11.6714 1.94541 -1.65555
thorax -6.36914 2.0374 -6.21185
lowerneck 7.53366 -2.80691 -1.68197
upperneck 19.8987 -3.97262 3.79163
head 4.87938 -1.72585 1.40395
rclavicle -1.19271e-014 -4.77083e-015
rhumerus 20.9866 19.5377 -95.439
rradius 15.7652
rwrist 55.7591
rhand -36.6894 18.2546
rfingers 7.12502
rthumb -9.77495 -11.4985
lclavicle -1.19271e-014 -4.77083e-015
lhumerus -16.0192 -0.492017 91.2774
lradius 48.3917
lwrist -7.64
lhand -12.001 -7.84017
lfingers 7.12502
lthumb 14.056 21.6645
rfemur 24.0506 -40.913 -135.269
rtibia 158.231
rfoot -54.665 -278.381
rtoes 12.78
lfemur -44.7528 73.2854 54.0219
ltibia 155.771
lfoot -63.9055 -72.7743
ltoes 9.14308
193
root -0.188443 6.79445 -14.7727 324.233 22.688 -3.47366
lowerback 81.2724 -6.6286 9.34017
upperback 11.6962 2.08286 -1.60828
thorax -6.32413 2.10907 -6.29986
lowerneck 7.32661 -3.01713 -1.64176
upperneck 19.847 -4.26453 3.91286
head 4.90659 -1.8548 1.42574
rclavicle -2.78299e-014 -3.18055e-014
rhumerus 21.0968 19.1954 -95.391
rradius 15.5094
rwrist 56.7436
rhand -36.0084 17.9171
rfingers 7.12502
rthumb -9.11792 -11.8658
lclavicle -2.78299e-014 -3.18055e-014
lhumerus -15.6968 -0.65173 91.4961
lradius 48.193
lwrist -7.84303
lhand -12.0704 -7.94309
lfingers 7.12502
lthumb 13.9891 21.5662
rfemur 23.8498 -40.9646 -135.277
rtibia 158.252
rfoot -55.4278 -278.192
rtoes 12.9221
lfemur -45.6646 73.2042 53.0126
ltibia 155.765
lfoot -63.4082 -72.8866
ltoes 9.19647
